<?xml version="1.0" encoding="UTF-8"?>
<svg xmlns="http://www.w3.org/2000/svg" xmlns:xlink="http://www.w3.org/1999/xlink" width="375pt" height="374.999991pt" viewBox="0 0 375 374.999991" version="1.2">
<defs>
<clipPath id="clip1">
  <path d="M 37.5 37.5 L 337.5 37.5 L 337.5 337.5 L 37.5 337.5 Z M 37.5 37.5 "/>
</clipPath>
</defs>
<g id="surface1">
<path style=" stroke:none;fill-rule:nonzero;fill:rgb(34.509277%,17.248535%,24.308777%);fill-opacity:1;" d="M 61.980469 375 L 313.019531 375 C 347.195312 375 375 347.195312 375 313.019531 L 375 61.980469 C 375 27.804688 347.195312 0 313.019531 0 L 61.980469 0 C 27.804688 0 0 27.804688 0 61.980469 L 0 313.019531 C 0 347.195312 27.804688 375 61.980469 375 Z M 61.980469 375 "/>
<g clip-path="url(#clip1)" clip-rule="nonzero">
<path style=" stroke:none;fill-rule:nonzero;fill:rgb(100%,100%,100%);fill-opacity:1;" d="M 126.136719 37.5 C 77.265625 37.5 37.5 77.265625 37.5 126.136719 L 37.5 248.863281 C 37.5 297.734375 77.265625 337.5 126.136719 337.5 L 248.863281 337.5 C 297.734375 337.5 337.5 297.734375 337.5 248.863281 L 337.5 126.136719 C 337.5 77.265625 297.734375 37.5 248.863281 37.5 Z M 126.136719 51.136719 L 248.863281 51.136719 C 290.363281 51.136719 323.863281 84.636719 323.863281 126.136719 L 323.863281 248.863281 C 323.863281 290.363281 290.363281 323.863281 248.863281 323.863281 L 126.136719 323.863281 C 84.636719 323.863281 51.136719 290.363281 51.136719 248.863281 L 51.136719 126.136719 C 51.136719 84.636719 84.636719 51.136719 126.136719 51.136719 Z M 269.316406 92.046875 C 268.421875 92.046875 267.535156 92.132812 266.65625 92.308594 C 265.78125 92.480469 264.925781 92.742188 264.101562 93.082031 C 263.273438 93.425781 262.488281 93.847656 261.742188 94.34375 C 260.996094 94.839844 260.308594 95.40625 259.675781 96.039062 C 259.042969 96.671875 258.476562 97.363281 257.980469 98.105469 C 257.484375 98.851562 257.0625 99.636719 256.71875 100.464844 C 256.378906 101.289062 256.117188 102.144531 255.945312 103.023438 C 255.769531 103.898438 255.683594 104.785156 255.683594 105.683594 C 255.683594 106.578125 255.769531 107.464844 255.945312 108.34375 C 256.117188 109.21875 256.378906 110.074219 256.71875 110.898438 C 257.0625 111.726562 257.484375 112.511719 257.980469 113.257812 C 258.476562 114.003906 259.042969 114.691406 259.675781 115.324219 C 260.308594 115.957031 260.996094 116.523438 261.742188 117.019531 C 262.488281 117.515625 263.273438 117.9375 264.101562 118.28125 C 264.925781 118.621094 265.78125 118.882812 266.65625 119.054688 C 267.535156 119.230469 268.421875 119.316406 269.316406 119.316406 C 270.214844 119.316406 271.101562 119.230469 271.976562 119.054688 C 272.855469 118.882812 273.710938 118.621094 274.535156 118.28125 C 275.363281 117.9375 276.148438 117.515625 276.894531 117.019531 C 277.636719 116.523438 278.328125 115.957031 278.960938 115.324219 C 279.59375 114.691406 280.160156 114.003906 280.65625 113.257812 C 281.152344 112.511719 281.574219 111.726562 281.917969 110.898438 C 282.257812 110.074219 282.519531 109.21875 282.691406 108.34375 C 282.867188 107.464844 282.953125 106.578125 282.953125 105.683594 C 282.953125 104.785156 282.867188 103.898438 282.691406 103.019531 C 282.519531 102.144531 282.257812 101.289062 281.917969 100.464844 C 281.574219 99.636719 281.152344 98.851562 280.65625 98.105469 C 280.160156 97.363281 279.59375 96.671875 278.960938 96.039062 C 278.328125 95.40625 277.636719 94.839844 276.894531 94.34375 C 276.148438 93.847656 275.363281 93.425781 274.535156 93.082031 C 273.710938 92.742188 272.855469 92.480469 271.976562 92.308594 C 271.101562 92.132812 270.214844 92.046875 269.316406 92.046875 Z M 187.5 112.5 C 146.160156 112.5 112.5 146.160156 112.5 187.5 C 112.5 228.839844 146.160156 262.5 187.5 262.5 C 228.839844 262.5 262.5 228.839844 262.5 187.5 C 262.5 146.160156 228.839844 112.5 187.5 112.5 Z M 187.5 126.136719 C 221.472656 126.136719 248.863281 153.527344 248.863281 187.5 C 248.863281 221.472656 221.472656 248.863281 187.5 248.863281 C 153.527344 248.863281 126.136719 221.472656 126.136719 187.5 C 126.136719 153.527344 153.527344 126.136719 187.5 126.136719 Z M 187.5 126.136719 "/>
</g>
</g>
</svg>
