<?xml version="1.0" encoding="UTF-8"?>
<svg xmlns="http://www.w3.org/2000/svg" xmlns:xlink="http://www.w3.org/1999/xlink" width="375pt" height="374.999991pt" viewBox="0 0 375 374.999991" version="1.2">
<defs>
<clipPath id="clip1">
  <path d="M 39 39.9375 L 334 39.9375 L 334 335.4375 L 39 335.4375 Z M 39 39.9375 "/>
</clipPath>
</defs>
<g id="surface1">
<path style=" stroke:none;fill-rule:nonzero;fill:rgb(34.509277%,17.248535%,24.308777%);fill-opacity:1;" d="M 61.980469 375 L 313.019531 375 C 347.195312 375 375 347.195312 375 313.019531 L 375 61.980469 C 375 27.804688 347.195312 0 313.019531 0 L 61.980469 0 C 27.804688 0 0 27.804688 0 61.980469 L 0 313.019531 C 0 347.195312 27.804688 375 61.980469 375 Z M 61.980469 375 "/>
<g clip-path="url(#clip1)" clip-rule="nonzero">
<path style=" stroke:none;fill-rule:nonzero;fill:rgb(100%,100%,100%);fill-opacity:1;" d="M 327.601562 267.574219 C 320.3125 259.183594 285.828125 224.632812 282.652344 221.449219 C 281.058594 219.632812 273.640625 211.859375 263.210938 211.859375 C 258.535156 211.859375 254.085938 213.414062 249.984375 216.480469 C 242.371094 222.171875 230.34375 233.058594 223.582031 239.296875 C 215.316406 234.667969 197.101562 224.089844 185.332031 214.402344 C 168.082031 200.199219 152.671875 181.726562 138.429688 158.28125 L 134.449219 150.769531 C 141.84375 142.742188 152.339844 131.066406 157.863281 123.652344 C 168.09375 109.921875 159.21875 96.386719 152.882812 90.925781 C 149.59375 87.632812 115.203125 53.238281 106.84375 45.941406 C 102.210938 41.902344 96.542969 39.769531 90.449219 39.769531 C 85.480469 39.769531 81.878906 41.179688 81.207031 41.460938 L 78.117188 43.328125 C 60.488281 54.660156 40.511719 67.507812 39.359375 117.984375 C 39.3125 168.878906 79.371094 218.585938 112.691406 251.023438 C 147.632812 289.394531 200.789062 335.132812 255.554688 335.132812 L 255.796875 335.132812 C 306.0625 333.980469 318.894531 313.972656 330.210938 296.320312 L 331.496094 294.316406 L 332.070312 293.238281 C 334.226562 288.101562 335.71875 276.910156 327.601562 267.574219 Z M 319.316406 287.390625 L 318.441406 288.757812 C 307.644531 305.601562 298.320312 320.152344 255.636719 321.132812 L 255.554688 328.136719 L 255.554688 321.132812 C 203.273438 321.132812 150.085938 271.296875 122.742188 241.289062 C 91.058594 210.441406 53.308594 164 53.351562 118.152344 C 54.328125 75.269531 68.859375 65.929688 85.683594 55.113281 L 87.007812 54.253906 C 87.652344 54.066406 88.910156 53.769531 90.457031 53.769531 C 93.199219 53.769531 95.558594 54.660156 97.660156 56.496094 C 105.90625 63.679688 142.832031 100.648438 143.203125 101.023438 L 143.667969 101.445312 C 144.507812 102.148438 151.722656 108.496094 146.667969 115.273438 C 142.292969 121.140625 132.949219 131.859375 120.832031 144.882812 L 117.445312 148.53125 L 126.285156 165.195312 C 141.554688 190.363281 157.964844 209.996094 176.460938 225.210938 C 193.066406 238.890625 220.207031 253.425781 221.351562 254.039062 L 225.757812 256.394531 L 229.410156 252.980469 C 232.660156 249.949219 249.335938 234.445312 258.359375 227.699219 C 260.007812 226.460938 261.597656 225.859375 263.214844 225.859375 C 267.140625 225.859375 271.027344 229.378906 272.152344 230.695312 L 272.582031 231.164062 C 272.957031 231.535156 309.886719 268.519531 317.054688 276.765625 C 320.820312 281.109375 319.765625 285.925781 319.316406 287.390625 Z M 319.316406 287.390625 "/>
</g>
</g>
</svg>
