<?xml version="1.0" encoding="UTF-8"?>
<svg xmlns="http://www.w3.org/2000/svg" xmlns:xlink="http://www.w3.org/1999/xlink" width="375pt" height="374.999991pt" viewBox="0 0 375 374.999991" version="1.2">
<defs>
<clipPath id="clip1">
  <path d="M 37.5 37.5 L 337.5 37.5 L 337.5 337.5 L 37.5 337.5 Z M 37.5 37.5 "/>
</clipPath>
</defs>
<g id="surface1">
<path style=" stroke:none;fill-rule:nonzero;fill:rgb(34.509277%,17.248535%,24.308777%);fill-opacity:1;" d="M 61.980469 375 L 313.019531 375 C 347.195312 375 375 347.195312 375 313.019531 L 375 61.980469 C 375 27.804688 347.195312 0 313.019531 0 L 61.980469 0 C 27.804688 0 0 27.804688 0 61.980469 L 0 313.019531 C 0 347.195312 27.804688 375 61.980469 375 Z M 61.980469 375 "/>
<g clip-path="url(#clip1)" clip-rule="nonzero">
<path style=" stroke:none;fill-rule:evenodd;fill:rgb(100%,100%,100%);fill-opacity:1;" d="M 187.75 37.519531 C 232.023438 37.589844 271.824219 56.875 299.234375 87.46875 C 299.234375 87.484375 299.257812 87.5 299.28125 87.515625 C 319.4375 110.03125 332.910156 138.679688 336.539062 170.300781 L 336.539062 170.433594 L 336.566406 170.652344 L 336.613281 171.089844 L 336.636719 171.246094 C 336.6875 171.796875 336.757812 172.347656 336.804688 172.894531 L 336.804688 173.0625 L 336.832031 173.28125 L 336.855469 173.503906 L 336.902344 173.941406 L 336.925781 174.164062 L 336.953125 174.382812 L 336.953125 174.566406 C 336.976562 174.878906 337 175.195312 337.023438 175.507812 L 337.046875 175.773438 L 337.074219 175.984375 L 337.074219 176.148438 L 337.121094 176.585938 L 337.121094 176.808594 L 337.144531 177.03125 L 337.167969 177.25 L 337.167969 177.472656 L 337.195312 177.691406 L 337.195312 177.894531 C 337.21875 178.132812 337.242188 178.367188 337.242188 178.601562 L 337.265625 178.847656 L 337.265625 179.085938 L 337.289062 179.324219 L 337.289062 179.566406 L 337.316406 179.804688 L 337.316406 180.042969 L 337.339844 180.355469 L 337.339844 180.578125 L 337.363281 180.800781 L 337.363281 181.011719 C 337.363281 181.167969 337.386719 181.320312 337.386719 181.480469 L 337.386719 181.722656 L 337.410156 181.964844 L 337.410156 182.445312 L 337.4375 182.6875 L 337.4375 183.167969 L 337.460938 183.40625 L 337.460938 183.925781 L 337.484375 184.148438 L 337.484375 185.339844 L 337.507812 185.582031 L 337.507812 187.285156 C 337.507812 187.367188 337.507812 187.441406 337.507812 187.519531 L 337.507812 189.457031 L 337.484375 189.699219 L 337.484375 190.675781 L 337.460938 190.90625 L 337.460938 191.628906 L 337.4375 191.867188 L 337.4375 192.347656 L 337.410156 192.589844 L 337.410156 193.117188 L 337.386719 193.339844 L 337.386719 193.558594 C 337.386719 193.710938 337.363281 193.867188 337.363281 194.027344 L 337.363281 194.273438 L 337.339844 194.511719 L 337.339844 194.75 L 337.316406 194.992188 L 337.316406 195.230469 L 337.289062 195.46875 L 337.289062 195.789062 L 337.265625 196.011719 L 337.265625 196.234375 L 337.242188 196.4375 C 337.242188 196.671875 337.21875 196.902344 337.195312 197.140625 L 337.195312 197.382812 L 337.167969 197.625 L 337.167969 197.859375 L 337.144531 198.007812 L 337.121094 198.226562 L 337.121094 198.449219 L 337.097656 198.667969 L 337.074219 198.890625 L 337.074219 199.113281 L 337.046875 199.332031 L 337.023438 199.527344 C 337 199.84375 336.976562 200.160156 336.953125 200.472656 L 336.953125 200.652344 L 336.925781 200.871094 L 336.902344 201.09375 L 336.878906 201.3125 L 336.855469 201.535156 L 336.832031 201.753906 L 336.804688 201.972656 L 336.804688 202.140625 C 336.757812 202.691406 336.6875 203.238281 336.636719 203.789062 L 336.613281 203.945312 L 336.566406 204.382812 L 336.539062 204.601562 L 336.539062 204.734375 C 332.910156 236.359375 319.4375 265.003906 299.28125 287.519531 C 299.257812 287.535156 299.234375 287.550781 299.234375 287.566406 C 271.75 318.222656 231.855469 337.519531 187.507812 337.519531 C 143.160156 337.519531 103.265625 318.222656 75.78125 287.566406 C 75.78125 287.550781 75.757812 287.535156 75.734375 287.519531 C 55.582031 265.003906 42.105469 236.359375 38.476562 204.734375 L 38.476562 204.601562 L 38.453125 204.382812 L 38.425781 204.164062 L 38.402344 203.945312 L 38.378906 203.789062 C 38.332031 203.238281 38.257812 202.691406 38.210938 202.140625 L 38.210938 201.972656 L 38.183594 201.753906 L 38.160156 201.535156 L 38.136719 201.3125 L 38.113281 201.09375 L 38.089844 200.871094 L 38.089844 200.652344 L 38.0625 200.472656 C 38.039062 200.15625 38.015625 199.84375 37.992188 199.527344 L 37.96875 199.261719 L 37.941406 199.050781 L 37.941406 198.890625 L 37.917969 198.667969 L 37.894531 198.449219 L 37.894531 198.226562 L 37.871094 198.007812 L 37.847656 197.785156 L 37.847656 197.5625 L 37.820312 197.34375 L 37.820312 197.140625 C 37.796875 196.90625 37.773438 196.671875 37.773438 196.4375 L 37.75 196.1875 L 37.75 195.949219 L 37.726562 195.710938 L 37.726562 195.46875 L 37.699219 195.230469 L 37.699219 194.992188 L 37.675781 194.679688 L 37.675781 194.457031 L 37.652344 194.234375 L 37.652344 194.027344 C 37.652344 193.867188 37.628906 193.714844 37.628906 193.558594 L 37.628906 193.3125 L 37.605469 193.074219 L 37.605469 192.589844 L 37.582031 192.347656 L 37.582031 191.867188 L 37.554688 191.628906 L 37.554688 190.886719 L 37.53125 190.664062 L 37.53125 189.457031 L 37.507812 189.214844 L 37.507812 187.753906 C 37.507812 187.671875 37.507812 187.59375 37.507812 187.519531 L 37.507812 185.820312 L 37.53125 185.582031 L 37.53125 184.359375 L 37.554688 184.132812 L 37.554688 183.40625 L 37.582031 183.167969 L 37.582031 182.6875 L 37.605469 182.445312 L 37.605469 181.917969 L 37.628906 181.695312 L 37.628906 181.480469 C 37.628906 181.324219 37.652344 181.167969 37.652344 181.011719 L 37.652344 180.761719 L 37.675781 180.523438 L 37.675781 180.285156 L 37.699219 180.042969 L 37.699219 179.804688 L 37.726562 179.566406 L 37.726562 179.246094 L 37.75 179.023438 L 37.75 178.804688 L 37.773438 178.601562 C 37.773438 178.367188 37.796875 178.132812 37.820312 177.894531 L 37.820312 177.652344 L 37.847656 177.414062 L 37.847656 177.175781 L 37.871094 177.03125 L 37.894531 176.808594 L 37.894531 176.585938 L 37.941406 176.148438 L 37.941406 175.925781 L 37.96875 175.703125 L 37.992188 175.507812 C 38.015625 175.191406 38.039062 174.875 38.0625 174.566406 L 38.089844 174.382812 L 38.089844 174.164062 L 38.113281 173.941406 L 38.160156 173.503906 L 38.183594 173.28125 L 38.210938 173.0625 L 38.210938 172.894531 C 38.257812 172.347656 38.332031 171.800781 38.378906 171.246094 L 38.402344 171.089844 L 38.425781 170.871094 L 38.453125 170.652344 L 38.476562 170.433594 L 38.476562 170.300781 C 42.105469 138.679688 55.582031 110.03125 75.734375 87.515625 C 75.757812 87.5 75.78125 87.484375 75.78125 87.46875 C 103.21875 56.867188 143.015625 37.585938 187.265625 37.519531 Z M 192.347656 264.980469 L 192.347656 327.476562 C 205.046875 325.570312 216.636719 316.207031 226.363281 301.929688 C 232.386719 293.109375 237.660156 282.433594 241.992188 270.324219 C 226.628906 267.140625 209.886719 265.269531 192.347656 264.980469 Z M 182.667969 264.980469 C 165.128906 265.269531 148.386719 267.140625 133.023438 270.324219 C 137.355469 282.433594 142.628906 293.109375 148.652344 301.929688 C 158.378906 316.207031 169.96875 325.570312 182.667969 327.476562 Z M 123.5625 272.492188 C 110.0625 275.886719 97.796875 280.328125 87.203125 285.613281 C 105.46875 304.285156 128.886719 317.878906 155.160156 324.089844 C 150.007812 319.558594 145.144531 313.953125 140.644531 307.382812 C 134.0625 297.707031 128.257812 285.90625 123.5625 272.492188 Z M 251.453125 272.492188 C 246.757812 285.90625 240.953125 297.707031 234.371094 307.382812 C 229.871094 313.953125 225.007812 319.558594 219.855469 324.089844 C 246.128906 317.882812 269.546875 304.285156 287.816406 285.613281 C 277.21875 280.328125 264.953125 275.886719 251.453125 272.492188 Z M 110.136719 192.355469 L 47.257812 192.355469 L 47.28125 192.523438 L 47.28125 192.953125 L 47.304688 193.164062 L 47.304688 193.585938 L 47.332031 193.796875 L 47.332031 194.015625 L 47.355469 194.226562 L 47.355469 194.539062 L 47.378906 194.75 L 47.378906 194.980469 L 47.402344 195.171875 L 47.402344 195.382812 L 47.425781 195.59375 L 47.425781 195.808594 L 47.453125 196.015625 L 47.453125 196.335938 L 47.476562 196.546875 L 47.476562 196.757812 L 47.5 196.960938 L 47.5 197.171875 L 47.546875 197.59375 L 47.546875 197.800781 L 47.574219 198.011719 L 47.597656 198.222656 L 47.597656 198.335938 L 47.621094 198.546875 L 47.621094 198.75 L 47.644531 198.953125 L 47.667969 199.164062 L 47.667969 199.371094 L 47.691406 199.582031 L 47.71875 199.789062 L 47.742188 199.996094 L 47.742188 200.199219 L 47.765625 200.378906 L 47.789062 200.53125 L 47.789062 200.730469 L 47.8125 200.9375 L 47.839844 201.144531 L 47.863281 201.355469 L 47.886719 201.558594 L 47.910156 201.765625 L 47.910156 201.964844 L 47.933594 202.144531 L 47.960938 202.308594 C 47.960938 202.375 47.984375 202.441406 47.984375 202.507812 L 48.007812 202.707031 L 48.054688 203.121094 L 48.082031 203.324219 L 48.082031 203.527344 L 48.105469 203.726562 L 48.128906 203.90625 C 48.152344 204.148438 48.203125 204.394531 48.226562 204.640625 L 48.25 204.878906 L 48.296875 205.285156 L 48.320312 205.480469 L 48.347656 205.660156 C 48.394531 205.972656 48.441406 206.289062 48.46875 206.605469 L 48.515625 206.835938 L 48.5625 207.226562 L 48.589844 207.40625 C 48.636719 207.789062 48.710938 208.175781 48.757812 208.5625 L 48.78125 208.773438 L 48.804688 208.96875 C 52.847656 235.117188 64.097656 258.898438 80.453125 278.199219 C 91.992188 272.175781 105.539062 267.113281 120.5625 263.285156 C 114.324219 242.402344 110.546875 218.210938 110.136719 192.355469 Z M 327.710938 193.144531 L 327.734375 192.953125 L 327.734375 192.523438 L 327.757812 192.355469 L 264.878906 192.355469 C 264.46875 218.210938 260.695312 242.398438 254.453125 263.285156 C 269.476562 267.113281 283.023438 272.175781 294.566406 278.199219 C 310.945312 258.898438 322.167969 235.117188 326.210938 208.96875 L 326.234375 208.757812 L 326.257812 208.5625 C 326.332031 208.175781 326.378906 207.792969 326.429688 207.40625 L 326.476562 207 L 326.523438 206.800781 L 326.546875 206.605469 C 326.597656 206.289062 326.621094 205.972656 326.667969 205.660156 L 326.695312 205.4375 L 326.742188 205.03125 L 326.765625 204.832031 L 326.789062 204.640625 C 326.816406 204.394531 326.863281 204.148438 326.886719 203.90625 L 326.910156 203.671875 L 326.9375 203.464844 L 326.960938 203.261719 L 326.984375 203.054688 L 327.007812 202.855469 L 327.007812 202.671875 L 327.03125 202.507812 C 327.03125 202.441406 327.058594 202.375 327.058594 202.308594 L 327.082031 202.105469 L 327.152344 201.484375 L 327.152344 201.273438 L 327.175781 201.070312 L 327.203125 200.871094 L 327.226562 200.726562 L 327.226562 200.53125 L 327.25 200.332031 L 327.296875 199.910156 L 327.296875 199.703125 L 327.324219 199.492188 L 327.347656 199.285156 L 327.347656 199.164062 L 327.371094 198.953125 L 327.394531 198.75 L 327.394531 198.546875 L 327.417969 198.335938 L 327.445312 198.125 L 327.445312 197.914062 L 327.492188 197.492188 L 327.492188 197.382812 L 327.515625 197.171875 L 327.515625 196.960938 L 327.539062 196.757812 L 327.539062 196.546875 L 327.566406 196.335938 L 327.566406 196.125 L 327.589844 195.910156 L 327.589844 195.59375 L 327.613281 195.382812 L 327.613281 195.171875 L 327.636719 194.964844 L 327.636719 194.75 L 327.660156 194.539062 L 327.660156 194.324219 L 327.6875 194.109375 L 327.6875 193.679688 L 327.710938 193.585938 Z M 182.667969 255.296875 L 182.667969 192.355469 L 119.8125 192.355469 C 120.226562 217.460938 123.878906 240.925781 129.976562 261.09375 C 146.257812 257.636719 164.039062 255.601562 182.667969 255.296875 Z M 255.203125 192.355469 L 192.347656 192.355469 L 192.347656 255.296875 C 210.976562 255.601562 228.757812 257.636719 245.039062 261.09375 C 251.136719 240.921875 254.789062 217.457031 255.203125 192.355469 Z M 326.210938 166.066406 C 322.167969 139.917969 310.945312 116.136719 294.566406 96.839844 C 283.023438 102.859375 269.476562 107.921875 254.453125 111.75 C 260.695312 132.636719 264.46875 156.824219 264.878906 182.679688 L 327.757812 182.679688 L 327.734375 182.511719 L 327.734375 182.085938 L 327.710938 181.875 L 327.710938 181.449219 L 327.6875 181.238281 L 327.6875 181.023438 L 327.660156 180.808594 L 327.660156 180.496094 L 327.636719 180.285156 L 327.636719 180.058594 L 327.613281 179.867188 L 327.613281 179.65625 L 327.589844 179.441406 L 327.589844 179.230469 L 327.566406 179.019531 L 327.566406 178.703125 L 327.539062 178.488281 L 327.539062 178.277344 L 327.515625 178.074219 L 327.515625 177.863281 L 327.492188 177.652344 L 327.46875 177.445312 L 327.46875 177.234375 L 327.445312 177.023438 L 327.417969 176.8125 L 327.417969 176.699219 L 327.394531 176.488281 L 327.394531 176.289062 L 327.347656 175.875 L 327.347656 175.664062 L 327.324219 175.453125 L 327.296875 175.246094 L 327.273438 175.039062 L 327.273438 174.835938 L 327.25 174.65625 L 327.226562 174.503906 L 327.226562 174.304688 L 327.203125 174.097656 L 327.175781 173.890625 L 327.105469 173.269531 L 327.105469 173.070312 L 327.082031 172.894531 L 327.058594 172.726562 C 327.058594 172.660156 327.03125 172.59375 327.03125 172.53125 L 327.007812 172.328125 L 326.960938 171.914062 L 326.9375 171.710938 L 326.9375 171.507812 L 326.910156 171.3125 L 326.886719 171.132812 C 326.863281 170.886719 326.816406 170.644531 326.789062 170.394531 L 326.765625 170.15625 L 326.742188 169.953125 L 326.695312 169.554688 L 326.667969 169.378906 C 326.621094 169.0625 326.597656 168.75 326.546875 168.429688 L 326.5 168.203125 L 326.476562 168.003906 L 326.453125 167.808594 L 326.429688 167.628906 C 326.378906 167.246094 326.332031 166.863281 326.257812 166.472656 L 326.234375 166.261719 Z M 245.039062 113.941406 C 228.757812 117.398438 210.976562 119.433594 192.347656 119.738281 L 192.347656 182.679688 L 255.203125 182.679688 C 254.789062 157.574219 251.136719 134.109375 245.039062 113.941406 Z M 120.5625 111.75 C 105.539062 107.921875 91.992188 102.859375 80.453125 96.839844 C 64.097656 116.136719 52.847656 139.917969 48.804688 166.066406 L 48.78125 166.277344 L 48.757812 166.472656 C 48.710938 166.859375 48.636719 167.242188 48.589844 167.628906 L 48.5625 167.835938 L 48.539062 168.039062 L 48.492188 168.234375 L 48.46875 168.429688 C 48.441406 168.746094 48.394531 169.0625 48.347656 169.378906 L 48.320312 169.597656 L 48.273438 170.003906 L 48.25 170.203125 L 48.226562 170.394531 C 48.203125 170.640625 48.152344 170.886719 48.128906 171.132812 L 48.105469 171.363281 L 48.082031 171.570312 L 48.054688 171.773438 L 48.03125 171.980469 L 48.007812 172.179688 L 48.007812 172.363281 L 47.984375 172.53125 C 47.984375 172.59375 47.960938 172.660156 47.960938 172.726562 L 47.933594 172.929688 L 47.886719 173.34375 L 47.863281 173.554688 L 47.863281 173.761719 L 47.839844 173.964844 L 47.8125 174.164062 L 47.789062 174.3125 L 47.789062 174.503906 L 47.765625 174.703125 L 47.71875 175.125 L 47.71875 175.335938 L 47.691406 175.542969 L 47.667969 175.753906 L 47.667969 175.875 L 47.621094 176.289062 L 47.621094 176.488281 L 47.574219 176.910156 L 47.574219 177.121094 L 47.546875 177.332031 L 47.523438 177.546875 L 47.523438 177.652344 L 47.5 177.863281 L 47.5 178.074219 L 47.476562 178.277344 L 47.476562 178.488281 L 47.453125 178.703125 L 47.453125 178.914062 L 47.425781 179.125 L 47.425781 179.441406 L 47.402344 179.65625 L 47.402344 179.867188 L 47.378906 180.070312 L 47.378906 180.285156 L 47.355469 180.496094 L 47.355469 180.710938 L 47.332031 180.925781 L 47.332031 181.355469 L 47.304688 181.449219 L 47.304688 181.890625 L 47.28125 182.085938 L 47.28125 182.511719 L 47.257812 182.679688 L 110.136719 182.679688 C 110.546875 156.824219 114.324219 132.636719 120.5625 111.75 Z M 129.976562 113.941406 C 123.878906 134.113281 120.226562 157.582031 119.8125 182.679688 L 182.667969 182.679688 L 182.667969 119.738281 C 164.039062 119.433594 146.257812 117.398438 129.976562 113.941406 Z M 192.347656 47.558594 L 192.347656 110.058594 C 209.886719 109.765625 226.628906 107.894531 241.992188 104.710938 C 237.660156 92.605469 232.386719 81.925781 226.363281 73.105469 C 216.636719 58.828125 205.046875 49.46875 192.347656 47.558594 Z M 182.667969 47.558594 C 169.96875 49.46875 158.378906 58.828125 148.652344 73.105469 C 142.628906 81.925781 137.355469 92.605469 133.023438 104.710938 C 148.386719 107.894531 165.128906 109.765625 182.667969 110.058594 Z M 155.160156 50.949219 C 128.886719 57.152344 105.46875 70.75 87.203125 89.421875 C 97.796875 94.707031 110.0625 99.148438 123.5625 102.542969 C 128.257812 89.128906 134.0625 77.332031 140.644531 67.652344 C 145.144531 61.085938 150.007812 55.480469 155.160156 50.949219 Z M 219.855469 50.949219 C 225.007812 55.480469 229.871094 61.085938 234.371094 67.652344 C 240.953125 77.332031 246.757812 89.128906 251.453125 102.542969 C 264.953125 99.148438 277.21875 94.707031 287.816406 89.421875 C 269.546875 70.753906 246.128906 57.15625 219.855469 50.949219 Z M 219.855469 50.949219 "/>
</g>
</g>
</svg>
