<?xml version="1.0" encoding="UTF-8"?>
<svg xmlns="http://www.w3.org/2000/svg" xmlns:xlink="http://www.w3.org/1999/xlink" width="375pt" height="374.999991pt" viewBox="0 0 375 374.999991" version="1.2">
<defs>
<clipPath id="clip1">
  <path d="M 108 37.5 L 267 37.5 L 267 337.5 L 108 337.5 Z M 108 37.5 "/>
</clipPath>
</defs>
<g id="surface1">
<path style=" stroke:none;fill-rule:nonzero;fill:rgb(34.509277%,17.248535%,24.308777%);fill-opacity:1;" d="M 61.980469 375 L 313.019531 375 C 347.195312 375 375 347.195312 375 313.019531 L 375 61.980469 C 375 27.804688 347.195312 0 313.019531 0 L 61.980469 0 C 27.804688 0 0 27.804688 0 61.980469 L 0 313.019531 C 0 347.195312 27.804688 375 61.980469 375 Z M 61.980469 375 "/>
<g clip-path="url(#clip1)" clip-rule="nonzero">
<path style=" stroke:none;fill-rule:nonzero;fill:rgb(100%,100%,100%);fill-opacity:1;" d="M 266.625 142.5 L 213.75 142.5 L 213.75 112.5 C 213.75 97.019531 215.011719 87.269531 237.195312 87.269531 L 265.214844 87.269531 L 265.214844 39.570312 C 251.578125 38.160156 237.871094 37.46875 224.144531 37.5 C 183.449219 37.5 153.75 62.355469 153.75 107.984375 L 153.75 142.5 L 108.75 142.5 L 108.75 202.5 L 153.75 202.484375 L 153.75 337.5 L 213.75 337.5 L 213.75 202.453125 L 259.738281 202.441406 Z M 266.625 142.5 "/>
</g>
</g>
</svg>
