<?xml version="1.0" encoding="UTF-8"?>
<svg xmlns="http://www.w3.org/2000/svg" xmlns:xlink="http://www.w3.org/1999/xlink" width="375pt" height="112.499997pt" viewBox="0 0 375 112.499997" version="1.2">
<defs>
<clipPath id="clip1">
  <path d="M 18 4.265625 L 97 4.265625 L 97 86 L 18 86 Z M 18 4.265625 "/>
</clipPath>
<clipPath id="clip2">
  <path d="M 213 33 L 263 33 L 263 108.054688 L 213 108.054688 Z M 213 33 "/>
</clipPath>
</defs>
<g id="surface1">
<g clip-path="url(#clip1)" clip-rule="nonzero">
<path style=" stroke:none;fill-rule:nonzero;fill:rgb(28.239441%,52.159119%,92.939758%);fill-opacity:1;" d="M 95.925781 41.074219 L 59.085938 41.074219 L 59.085938 52.058594 L 85.214844 52.058594 C 83.917969 67.441406 71.167969 74.039062 59.128906 74.039062 C 58.179688 74.046875 57.230469 74 56.28125 73.910156 C 55.335938 73.820312 54.394531 73.683594 53.460938 73.5 C 52.527344 73.3125 51.605469 73.082031 50.695312 72.808594 C 49.785156 72.53125 48.890625 72.210938 48.011719 71.84375 C 47.132812 71.476562 46.273438 71.070312 45.4375 70.617188 C 44.597656 70.164062 43.785156 69.671875 42.992188 69.140625 C 42.203125 68.605469 41.441406 68.035156 40.710938 67.425781 C 39.976562 66.816406 39.273438 66.171875 38.605469 65.496094 C 37.9375 64.816406 37.300781 64.105469 36.703125 63.363281 C 36.101562 62.621094 35.542969 61.847656 35.019531 61.050781 C 34.496094 60.25 34.011719 59.429688 33.570312 58.582031 C 33.128906 57.734375 32.730469 56.867188 32.375 55.980469 C 32.019531 55.09375 31.707031 54.195312 31.4375 53.277344 C 31.171875 52.359375 30.953125 51.429688 30.777344 50.488281 C 30.601562 49.550781 30.472656 48.605469 30.390625 47.652344 C 30.308594 46.699219 30.273438 45.742188 30.289062 44.789062 C 30.289062 28.15625 43.097656 15.347656 59.164062 15.347656 C 71.558594 15.347656 78.859375 23.289062 78.859375 23.289062 L 86.511719 15.320312 C 86.511719 15.320312 76.683594 4.328125 58.765625 4.328125 C 35.945312 4.328125 18.292969 23.6875 18.292969 44.59375 C 18.292969 65.078125 34.898438 85.058594 59.339844 85.058594 C 80.839844 85.058594 96.582031 70.253906 96.582031 48.359375 C 96.582031 43.742188 95.914062 41.074219 95.914062 41.074219 Z M 95.925781 41.074219 "/>
</g>
<path style=" stroke:none;fill-rule:nonzero;fill:rgb(85.879517%,19.60907%,21.179199%);fill-opacity:1;" d="M 126.105469 33.113281 C 110.984375 33.113281 100.152344 44.996094 100.152344 58.84375 C 100.152344 72.90625 110.65625 85.003906 126.28125 85.003906 C 140.421875 85.003906 152.007812 74.140625 152.007812 59.148438 C 152.007812 41.992188 138.53125 33.113281 126.105469 33.113281 Z M 126.25 43.304688 C 133.683594 43.304688 140.726562 49.347656 140.726562 59.082031 C 140.726562 68.605469 133.714844 74.820312 126.214844 74.820312 C 117.976562 74.820312 111.503906 68.191406 111.503906 59.003906 C 111.503906 50.015625 117.917969 43.304688 126.273438 43.304688 Z M 126.25 43.304688 "/>
<path style=" stroke:none;fill-rule:nonzero;fill:rgb(95.689392%,76.078796%,5.099487%);fill-opacity:1;" d="M 182.542969 33.113281 C 167.425781 33.113281 156.589844 44.996094 156.589844 58.84375 C 156.589844 72.90625 167.09375 85.003906 182.71875 85.003906 C 196.859375 85.003906 208.445312 74.140625 208.445312 59.148438 C 208.445312 41.992188 194.96875 33.113281 182.542969 33.113281 Z M 182.691406 43.304688 C 190.121094 43.304688 197.167969 49.347656 197.167969 59.082031 C 197.167969 68.605469 190.152344 74.820312 182.652344 74.820312 C 174.414062 74.820312 167.941406 68.191406 167.941406 59.003906 C 167.941406 50.015625 174.355469 43.304688 182.714844 43.304688 Z M 182.691406 43.304688 "/>
<g clip-path="url(#clip2)" clip-rule="nonzero">
<path style=" stroke:none;fill-rule:nonzero;fill:rgb(28.239441%,52.159119%,92.939758%);fill-opacity:1;" d="M 237.898438 33.144531 C 224.019531 33.144531 213.117188 45.359375 213.117188 59.070312 C 213.117188 74.6875 225.761719 85.042969 237.65625 85.042969 C 245.011719 85.042969 248.925781 82.105469 251.78125 78.738281 L 251.78125 83.855469 C 251.78125 92.804688 246.371094 98.167969 238.210938 98.167969 C 230.324219 98.167969 226.371094 92.273438 224.96875 88.933594 L 215.046875 93.074219 C 218.566406 100.554688 225.652344 108.355469 238.292969 108.355469 C 252.121094 108.355469 262.601562 99.621094 262.601562 81.300781 L 262.601562 34.703125 L 251.820312 34.703125 L 251.820312 39.097656 C 248.496094 35.488281 243.941406 33.144531 237.902344 33.144531 Z M 238.898438 43.316406 C 245.699219 43.316406 252.6875 49.15625 252.6875 59.125 C 252.6875 69.261719 245.710938 74.84375 238.75 74.84375 C 231.351562 74.84375 224.46875 68.8125 224.46875 59.21875 C 224.46875 49.257812 231.617188 43.316406 238.898438 43.316406 Z M 238.898438 43.316406 "/>
</g>
<path style=" stroke:none;fill-rule:nonzero;fill:rgb(85.879517%,19.60907%,21.179199%);fill-opacity:1;" d="M 310.785156 33.082031 C 297.699219 33.082031 286.710938 43.550781 286.710938 58.988281 C 286.710938 75.332031 298.957031 85.023438 312.015625 85.023438 C 322.9375 85.023438 329.667969 79.019531 333.640625 73.636719 L 324.714844 67.671875 C 322.402344 71.277344 318.527344 74.8125 312.070312 74.8125 C 304.8125 74.8125 301.476562 70.820312 299.410156 66.945312 L 334.019531 52.511719 L 332.253906 48.285156 C 328.914062 40.003906 321.113281 33.082031 310.789062 33.082031 Z M 311.238281 43.0625 C 315.953125 43.0625 319.347656 45.582031 320.789062 48.601562 L 297.671875 58.3125 C 296.671875 50.792969 303.761719 43.0625 311.207031 43.0625 Z M 311.238281 43.0625 "/>
<path style=" stroke:none;fill-rule:nonzero;fill:rgb(23.529053%,72.938538%,32.939148%);fill-opacity:1;" d="M 270.183594 83.488281 L 281.550781 83.488281 L 281.550781 7.015625 L 270.183594 7.015625 Z M 270.183594 83.488281 "/>
</g>
</svg>
